<svg
    xmlns="http://www.w3.org/2000/svg"
   height="32"
   viewBox="0 0 32 32"
   version="1.1"
   id="svg12"   
>
  <path
     d="M16.135 0c8.75 0 15.865 7.313 15.865 15.995s-7.104 15.99-15.865 15.99l-16.135 0.016v-16.281c0-8.677 7.375-15.719 16.135-15.719zM16.292 6.083c-3.458-0.005-6.661 1.802-8.448 4.76-1.776 2.943-1.849 6.609-0.198 9.625l-1.781 5.677 6.396-1.432c3.656 1.635 7.953 0.901 10.844-1.854 2.896-2.734 3.818-6.969 2.318-10.661-1.51-3.703-5.12-6.12-9.12-6.115z"
     id="path10" />
  <path
     style="fill:#ffffff;stroke-width:0.0435967"
     d="M 0.02224817,23.544067 C 0.02269784,15.108902 0.03019852,14.630563 0.17848529,13.580381 0.83893524,8.9030121 3.7622114,4.6610066 8.0174304,2.2051828 10.062266,1.0250419 12.322965,0.3097646 14.712782,0.08679639 c 0.72396,-0.06754495 2.272245,-0.05760568 2.998679,0.01925011 7.310922,0.77348667 13.179613,6.556064 14.139576,13.9321005 0.562127,4.319188 -0.771347,8.78604 -3.649386,12.224666 -0.543994,0.649953 -1.620912,1.708152 -2.261597,2.222287 -1.953914,1.567969 -4.308347,2.673986 -6.735694,3.164156 -1.559461,0.314911 -1.035073,0.300735 -11.8256134,0.319688 l -7.35694823,0.01292 z M 9.0381284,25.45794 c 1.7189476,-0.385054 3.1547876,-0.700674 3.1907546,-0.701376 0.03597,-7.02e-4 0.271389,0.0796 0.523161,0.178446 1.686359,0.662082 3.679289,0.826992 5.526608,0.457315 1.547342,-0.309648 3.035852,-1.014208 4.304454,-2.037438 0.470444,-0.37945 1.239268,-1.181222 1.617975,-1.687312 1.286504,-1.719239 1.935159,-3.677431 1.935159,-5.841962 0,-1.567574 -0.297356,-2.856522 -0.980618,-4.250681 C 24.617319,10.476554 23.998514,9.6249107 23.15031,8.8150823 21.645337,7.3781981 19.866292,6.5054448 17.743869,6.1628216 17.149933,6.0669419 15.588805,6.0530659 14.997275,6.1384083 12.94962,6.4338311 11.146183,7.2707183 9.6348774,8.626836 c -2.1872423,1.962645 -3.3935032,4.964091 -3.1691,7.885426 0.094221,1.226586 0.4034817,2.404827 0.9082389,3.460268 l 0.2422736,0.506591 -0.8762646,2.793131 c -0.4819457,1.536223 -0.8762651,2.813979 -0.8762651,2.839459 0,0.02548 0.011027,0.04633 0.024504,0.04633 0.013477,0 1.4309158,-0.315044 3.1498638,-0.700098 z"
     id="path20" />
</svg>
